<?xml version="1.0" encoding="UTF-8"?>
<svg version="1.1" xmlns="http://www.w3.org/2000/svg" width="1920" height="1920">
<path d="M0 0 C1.85108368 0.00090637 1.85108368 0.00090637 3.73956299 0.00183105 C23.17213867 0.02759745 42.45543188 0.3555851 61.8125 2.1875 C62.48081848 2.25066406 63.14913696 2.31382812 63.83770752 2.37890625 C86.02838491 4.5035248 107.93206175 7.95766609 129.8125 12.1875 C131.01003906 12.41663086 132.20757813 12.64576172 133.44140625 12.88183594 C186.96118043 23.27505026 238.76640872 41.54684281 287.8125 65.1875 C288.95170898 65.73519043 290.09091797 66.28288086 291.26464844 66.84716797 C307.90605068 74.89242519 324.02389887 83.57806866 339.8125 93.1875 C341.32070312 94.10233154 341.32070312 94.10233154 342.859375 95.03564453 C356.8840823 103.57638871 370.5036219 112.57118053 383.8125 122.1875 C384.62058105 122.76886719 385.42866211 123.35023438 386.26123047 123.94921875 C400.62868213 134.31093911 414.40340516 145.2985531 427.82958984 156.8503418 C430.64391747 159.27569567 430.64391747 159.27569567 433.8125 161.1875 C433.8125 161.8475 433.8125 162.5075 433.8125 163.1875 C434.40313232 163.45594727 434.99376465 163.72439453 435.60229492 164.00097656 C437.82640576 165.19496515 439.35602086 166.43443395 441.17578125 168.171875 C441.80750244 168.76991943 442.43922363 169.36796387 443.09008789 169.98413086 C444.09736938 170.95104858 444.09736938 170.95104858 445.125 171.9375 C446.56731458 173.30900795 448.01003204 174.68009233 449.453125 176.05078125 C450.54657227 177.09226318 450.54657227 177.09226318 451.66210938 178.15478516 C453.64866989 180.03263516 455.65351574 181.88691569 457.671875 183.73046875 C466.20123206 191.53347065 474.18879211 199.71375094 482.00585938 208.22802734 C483.76782835 210.13904937 485.54470827 212.03477905 487.328125 213.92578125 C492.98090735 219.93023813 498.43852511 226.00128138 503.59375 232.4453125 C505.54747839 234.85995568 507.55445902 237.21635392 509.58886719 239.56298828 C517.49723407 248.72260655 524.64014522 258.448437 531.8125 268.1875 C532.37227539 268.94192383 532.93205078 269.69634766 533.50878906 270.47363281 C551.80670035 295.153257 567.85531918 321.30086591 582.31689453 348.38867188 C583.30552278 350.23875908 584.29861487 352.0864686 585.29638672 353.93164062 C629.28867244 435.33114854 653.62318871 527.99592076 633.27734375 845.0703125 C607.71421852 930.50362356 565.90406634 1011.56557066 506.4140625 1081.1171875 C504.06992299 1083.86484045 501.81366684 1086.67550228 499.5625 1089.5 C494.99362877 1095.1302424 490.04031571 1100.37334971 485.04003906 1105.6184082 C482.4517729 1108.33865299 479.94102721 1111.02684099 477.59375 1113.9609375 C475.9007712 1116.077161 474.20445143 1117.71116296 472.125 1119.4375 C467.43533324 1123.44471525 463.1365459 1127.79358621 458.8125 1132.1875 C457.14583333 1133.85416667 455.47916667 1135.52083333 453.8125 1137.1875 C453.02230469 1137.98929688 452.23210937 1138.79109375 451.41796875 1139.6171875 C446.38606667 1144.70599316 441.26274524 1149.553874 435.8125 1154.1875 C434.72597062 1155.12561701 433.64008942 1156.064485 432.5546875 1157.00390625 C425.75320473 1162.88062601 418.89061174 1168.64474947 411.8125 1174.1875 C410.86963135 1174.93338379 410.86963135 1174.93338379 409.90771484 1175.69433594 C393.44492403 1188.71708388 376.38762043 1200.71667241 358.8125 1212.1875 C358.06274902 1212.67718262 357.31299805 1213.16686523 356.54052734 1213.67138672 C336.36167715 1226.78526129 315.28822058 1238.34737437 293.8125 1249.1875 C292.78205566 1249.70812012 291.75161133 1250.22874023 290.68994141 1250.76513672 C272.45128598 1259.91367076 253.8495615 1267.87546553 234.8125 1275.1875 C234.18533081 1275.42877625 233.55816162 1275.67005249 232.9119873 1275.91864014 C197.88933688 1289.3411197 161.61600592 1299.09074381 124.8125 1306.1875 C124.14561157 1306.31620483 123.47872314 1306.44490967 122.79162598 1306.57751465 C80.61741302 1314.6639695 80.61741302 1314.6639695 62.8125 1314.1875 C64.05140036 1306.95557142 65.53934471 1299.83993719 67.32421875 1292.72412109 C67.56910254 1291.7359779 67.81398634 1290.7478347 68.06629086 1289.72974777 C68.87430245 1286.47266703 69.68714727 1283.21681312 70.5 1279.9609375 C71.07555588 1277.64468066 71.65078985 1275.3283438 72.22572327 1273.01193237 C73.44794634 1268.09019216 74.6722405 1263.16897382 75.89822388 1258.24816895 C77.83199281 1250.48628658 79.76109695 1242.72324978 81.68920898 1234.95996094 C82.33560007 1232.35753972 82.98201403 1229.75512419 83.62843323 1227.15270996 C83.78787397 1226.51079869 83.94731471 1225.86888742 84.11158699 1225.2075243 C85.23618552 1220.68009186 86.36143258 1216.15282108 87.48692322 1211.62561035 C92.13721866 1192.91888866 96.76432556 1174.20659626 101.37014008 1155.48888016 C102.92638856 1149.16542864 104.48449744 1142.84243524 106.04296875 1136.51953125 C106.22106834 1135.79695318 106.39916794 1135.07437511 106.58266449 1134.32990074 C112.30473915 1111.11802553 118.05337833 1087.91271012 123.800457 1064.70701599 C124.66718883 1061.20701961 125.53371517 1057.70697241 126.400177 1054.20690918 C129.39049852 1042.12826434 132.38363437 1030.0503251 135.38297749 1017.97391701 C136.76883945 1012.39366975 138.15318409 1006.81305316 139.53479004 1001.23175049 C140.94242641 995.5456119 142.35350016 989.86033671 143.76703262 984.17566109 C144.29940296 982.03217237 144.8305534 979.88838028 145.3604393 977.74427605 C146.08745621 974.80338682 146.8188033 971.86360822 147.55126953 968.92407227 C147.7668816 968.04753305 147.98249367 967.17099384 148.20463943 966.26789284 C149.69840825 960.30159175 149.69840825 960.30159175 150.8125 959.1875 C152.86251606 959.08719182 154.91603838 959.0584006 156.96850586 959.05619812 C157.61890115 959.05408241 158.26929644 959.05196669 158.93940067 959.04978687 C161.13539827 959.04375957 163.33133884 959.044789 165.52734375 959.0456543 C167.09594827 959.0426242 168.6645519 959.03910317 170.2331543 959.03512573 C173.62222391 959.02721828 177.0112829 959.02208459 180.40036011 959.01883507 C185.77353126 959.01292659 191.14663607 958.9963827 196.51977539 958.97749329 C198.3603973 958.97115483 200.20101924 958.96482922 202.04164124 958.95851612 C202.96388048 958.95535031 203.88611973 958.9521845 204.83630562 958.94892275 C217.34788939 958.90690772 229.85944426 958.87393732 242.37109375 958.86157227 C250.80425278 958.85315217 259.2372494 958.83050728 267.67032719 958.7922166 C272.12825511 958.77256985 276.58594087 958.76001269 281.04391479 958.76505089 C285.25310202 958.76974892 289.46183344 958.75561565 293.67092896 958.72803879 C295.20215356 958.7212096 296.73342615 958.72090925 298.26464844 958.72823906 C325.74405677 958.84631464 350.03289169 948.1502884 369.8125 929.1875 C384.6110216 913.7619224 392.13183821 895.37272724 397.0390625 874.86328125 C397.42583846 873.27847399 397.8134422 871.69386855 398.20181274 870.10945129 C399.21559844 865.9627667 400.21741504 861.81328856 401.21595764 857.66291046 C401.98485686 854.47228848 402.76011334 851.28323014 403.53570557 848.0942297 C405.89513244 838.39223315 408.23126771 828.68469653 410.56269836 818.9759407 C411.64576556 814.46732004 412.73071395 809.95915201 413.81542969 805.45092773 C415.61130916 797.98606983 417.40614532 790.52096185 419.20019531 783.05566406 C421.43909975 773.73944612 423.68032603 764.4237886 425.92263222 755.1083889 C432.81490382 726.47464041 439.698461 697.8388124 446.56640625 669.19921875 C448.58582627 660.77861916 450.60536527 652.3580481 452.625 643.9375 C452.87719425 642.88597496 453.1293885 641.83444992 453.38922501 640.75106049 C460.51901137 611.02441765 467.67560399 581.30440612 474.86642456 551.59246826 C477.56166996 540.4555553 480.25402006 529.31794172 482.94624329 518.18029785 C483.16078942 517.29273426 483.37533556 516.40517067 483.59638309 515.49071121 C484.02688972 513.70972521 484.45738789 511.92873716 484.88787746 510.14774704 C486.17285062 504.83207746 487.4588322 499.51665291 488.74544811 494.20138073 C490.79135038 485.74899894 492.83373306 477.29578342 494.86908245 468.84085369 C495.79572618 464.99189964 496.7240437 461.14337176 497.65719604 457.29598999 C498.51073289 453.77669611 499.35920534 450.25621973 500.20381737 446.73477364 C500.65081756 444.87659808 501.10302878 443.01967839 501.55549622 441.16282654 C506.36800756 421.0196814 507.84442723 403.77908669 497.625 385 C489.83080786 372.35095089 478.68595842 364.18782345 464.26350975 360.49459291 C452.66660255 357.93538067 440.55855131 358.65492981 428.74712324 358.72323751 C424.95459659 358.74068974 421.16209293 358.7346534 417.36953735 358.73162842 C410.81631889 358.72954216 404.26326107 358.74197463 397.71008301 358.76457977 C388.23559223 358.7972405 378.76117827 358.80752109 369.28663731 358.81253174 C353.91077419 358.82126245 338.53499649 358.84781733 323.15917969 358.88574219 C308.23275171 358.92252008 293.30634702 358.95080348 278.37988281 358.96777344 C277.45811776 358.96882433 276.53635271 358.96987523 275.58665538 358.97095796 C270.96192359 358.97617853 266.33719163 358.98123326 261.71245956 358.98620558 C223.41241328 359.02759829 185.1124623 359.09798572 146.8125 359.1875 C146.62662354 359.95495167 146.44074709 360.72240334 146.24923801 361.51311111 C144.46458093 368.88134168 142.6795358 376.24947809 140.89409453 383.61751866 C139.97703167 387.40204794 139.06009965 391.18660879 138.14350891 394.97125244 C133.54273934 413.9675361 128.91988471 432.95806153 124.25 451.9375 C123.89283314 453.39024847 123.53569841 454.84300484 123.17860985 456.29577255 C122.38909448 459.50719829 121.59888092 462.71845161 120.80859375 465.9296875 C115.79756478 486.30426743 110.80236273 506.68272696 105.8125 527.0625 C105.56692478 528.06542587 105.32134956 529.06835175 105.06833267 530.10166931 C97.40954824 561.3829139 89.8137263 592.67892213 82.26243973 623.98627472 C74.40230867 656.5728733 66.44643247 689.13528615 58.45144272 721.68904114 C50.98561784 752.08965421 43.57505524 782.50266148 36.25 812.9375 C28.61486528 844.66068634 20.88768927 876.36041812 13.11138153 908.04928589 C5.63975001 938.4978324 -1.7749423 968.95938289 -9.125 999.4375 C-16.99233903 1032.05900227 -24.93922092 1064.66035655 -32.9375 1097.25 C-33.47366911 1099.4348639 -34.00983245 1101.61972921 -34.54598999 1103.80459595 C-34.81015811 1104.8810843 -35.07432623 1105.95757265 -35.34649944 1107.06668186 C-36.65812973 1112.4116306 -37.9697236 1117.75658827 -39.28125 1123.1015625 C-39.53658319 1124.14210218 -39.79191639 1125.18264187 -40.05498695 1126.25471306 C-44.86876906 1145.87337635 -49.66369376 1165.49657183 -54.4375 1185.125 C-54.61232784 1185.84370522 -54.78715569 1186.56241043 -54.96728134 1187.30289459 C-59.64152516 1206.51968523 -64.28948748 1225.74277015 -68.92578125 1244.96875 C-69.41614784 1247.00191753 -69.90651445 1249.03508505 -70.3968811 1251.06825256 C-72.55504646 1260.01736908 -74.71231859 1268.96669737 -76.86572742 1277.91695976 C-77.74542324 1281.57237969 -78.62611481 1285.22755925 -79.50700951 1288.88269043 C-79.91858315 1290.59156938 -80.32968369 1292.30056236 -80.74028969 1294.00967407 C-81.3029799 1296.35170482 -81.86724675 1298.69335032 -82.43188477 1301.03491211 C-82.67869177 1302.0649053 -82.67869177 1302.0649053 -82.93048477 1303.11570644 C-83.59162705 1305.85149161 -84.29680746 1308.51542238 -85.1875 1311.1875 C-92.65896484 1311.43970134 -99.58954846 1310.49887207 -106.9375 1309.1875 C-108.18901855 1308.96602295 -109.44053711 1308.7445459 -110.72998047 1308.51635742 C-139.32767742 1303.37805048 -167.42920314 1296.78271272 -195.1875 1288.1875 C-195.88510437 1287.97158203 -196.58270874 1287.75566406 -197.30145264 1287.53320312 C-227.13288935 1278.25765706 -256.02902059 1266.72764948 -284.1875 1253.1875 C-285.29544922 1252.65543945 -286.40339844 1252.12337891 -287.54492188 1251.57519531 C-304.22302055 1243.51519949 -320.33097937 1234.75603994 -336.1875 1225.1875 C-337.77188904 1224.24307614 -339.35651065 1223.29904229 -340.94140625 1222.35546875 C-369.21154967 1205.41491599 -396.26256124 1186.1747639 -421.2578125 1164.68359375 C-423.96443733 1162.37754939 -426.7192574 1160.15301747 -429.5 1157.9375 C-435.1302424 1153.36862877 -440.37334971 1148.41531571 -445.6184082 1143.41503906 C-449.03434112 1140.1648376 -452.50301614 1137.13379201 -456.1875 1134.1875 C-457.2847291 1133.01061258 -458.34908081 1131.80204246 -459.375 1130.5625 C-463.70478908 1125.49370972 -468.44255531 1120.86378794 -473.1875 1116.1875 C-474.42886719 1114.94419922 -474.42886719 1114.94419922 -475.6953125 1113.67578125 C-477.3014361 1112.07217508 -478.91792068 1110.47884682 -480.546875 1108.8984375 C-485.7407805 1103.82334683 -490.45035882 1098.56708571 -494.98046875 1092.89453125 C-497.09502245 1090.30092822 -499.29536471 1087.83542569 -501.5625 1085.375 C-506.62015183 1079.81685138 -511.19453804 1073.92425745 -515.7890625 1067.984375 C-517.1387049 1066.25019761 -518.50323564 1064.52921096 -519.875 1062.8125 C-571.8978975 997.60617193 -610.25021468 920.61202339 -658.1875 673.1875 C-658.20941406 672.1341748 -658.23132813 671.08084961 -658.25390625 669.99560547 C-659.05141346 624.49117347 -655.13749049 578.96170745 -646.58599854 534.27368164 C-646.1952733 532.22819405 -645.81088647 530.18159222 -645.42724609 528.13476562 C-629.10696798 441.76747438 -592.85956671 358.63190004 -513.1875 246.1875 C-512.44242188 245.259375 -511.69734375 244.33125 -510.9296875 243.375 C-501.06259191 231.20911869 -490.77044769 219.51289839 -480.01269531 208.13037109 C-478.15923625 206.157414 -476.32383623 204.1689893 -474.4921875 202.17578125 C-466.68056934 193.70093178 -458.58919605 185.6831508 -450.07226562 177.91943359 C-448.09865004 176.10585471 -446.14882786 174.26925388 -444.203125 172.42578125 C-443.56060791 171.81951904 -442.91809082 171.21325684 -442.25610352 170.58862305 C-441.02690492 169.42802346 -439.80069226 168.26425106 -438.57788086 167.09692383 C-434.41236251 163.1875 -434.41236251 163.1875 -432.1875 163.1875 C-432.1875 162.5275 -432.1875 161.8675 -432.1875 161.1875 C-430.34375 159.48046875 -430.34375 159.48046875 -427.6875 157.375 C-426.67558594 156.56675781 -425.66367187 155.75851562 -424.62109375 154.92578125 C-424.06534668 154.48443848 -423.50959961 154.0430957 -422.93701172 153.58837891 C-421.14323644 152.15205703 -419.36870247 150.6947046 -417.59765625 149.23046875 C-393.49076286 129.33924381 -368.00677146 111.23346672 -341.1875 95.1875 C-339.81053955 94.35702148 -339.81053955 94.35702148 -338.40576172 93.50976562 C-317.98267638 81.22299091 -296.89107221 70.30270905 -275.4375 59.9375 C-274.52798584 59.49575439 -273.61847168 59.05400879 -272.68139648 58.59887695 C-267.28866321 56.03122181 -261.89065002 53.95400409 -256.1875 52.1875 C-257.57723077 60.44899647 -259.39908815 68.55995976 -261.390625 76.6953125 C-261.71320814 78.02271398 -262.03552701 79.35017971 -262.35760498 80.67770386 C-263.21081688 84.19098499 -264.0679137 87.70330733 -264.92578125 91.2154541 C-265.58059767 93.89892051 -266.23273051 96.58303464 -266.88464546 99.26720715 C-273.92545722 128.25530211 -281.06674585 157.21897193 -288.1875 186.1875 C-288.7642464 188.53393435 -289.34098802 190.88036988 -289.91772461 193.22680664 C-290.1980957 194.36748816 -290.4784668 195.50816969 -290.76733398 196.68341732 C-291.18511108 198.38313356 -291.18511108 198.38313356 -291.61132812 200.1171875 C-291.88968506 201.2496695 -292.16804199 202.38215151 -292.45483398 203.54895115 C-293.29541671 206.96883041 -294.13599142 210.38871163 -294.9765625 213.80859375 C-295.25422455 214.93826002 -295.5318866 216.06792629 -295.81796265 217.23182487 C-311.28818427 280.16972419 -311.28818427 280.16972419 -326.6875 343.125 C-326.88532326 343.93570072 -327.08314651 344.74640144 -327.28696442 345.58166885 C-332.03452438 365.0405578 -336.75295489 384.5063113 -341.4375 403.98046875 C-341.76511385 405.34239381 -341.76511385 405.34239381 -342.09934616 406.7318325 C-343.84536759 413.99091349 -345.59085674 421.25012253 -347.33576202 428.50947189 C-352.37547129 449.47559356 -357.44780107 470.43002019 -362.73196411 491.33615112 C-367.94650483 511.9896617 -372.91914212 532.7011966 -377.91026306 553.40953445 C-385.45483401 584.71219142 -393.0676032 615.99627845 -400.8125 647.25 C-402.54341274 654.23556716 -404.27414828 661.22117804 -406.00390625 668.20703125 C-406.21694145 669.06735647 -406.42997665 669.92768169 -406.64946747 670.81407738 C-411.7314995 691.34337189 -416.74541176 711.88921108 -421.75 732.4375 C-421.96193371 733.30763859 -422.17386742 734.17777718 -422.39222336 735.0742836 C-424.23733226 742.65002586 -426.08207298 750.22585775 -427.92634583 757.80180359 C-430.83291263 769.7400467 -433.75270521 781.67500873 -436.68075562 793.60800171 C-441.62851298 813.77333732 -446.5381653 833.94785725 -451.4375 854.125 C-451.6157922 854.85920795 -451.7940844 855.59341591 -451.97777939 856.34987259 C-456.0668975 873.18910242 -460.15056999 890.02964126 -464.22536469 906.87234306 C-464.79100109 909.21009833 -465.35680016 911.54781416 -465.92266846 913.88551331 C-466.10620754 914.6437461 -466.28974663 915.40197889 -466.4788475 916.18318844 C-466.84473611 917.69470922 -467.21063415 919.20622772 -467.5765419 920.71774387 C-468.6405392 925.11347775 -469.70330304 929.50950755 -470.76514053 933.90576363 C-471.26159655 935.96038156 -471.75862912 938.01485898 -472.25592041 940.0692749 C-472.86121516 942.56996748 -473.46555778 945.07089079 -474.06878662 947.57208252 C-474.46786224 949.21899078 -474.46786224 949.21899078 -474.875 950.89916992 C-475.10574219 951.85385666 -475.33648437 952.8085434 -475.57421875 953.79216003 C-476.03980305 955.61062859 -476.59390109 957.40670328 -477.1875 959.1875 C-428.0175 959.1875 -378.8475 959.1875 -328.1875 959.1875 C-327.8575 956.2175 -327.5275 953.2475 -327.1875 950.1875 C-326.62830306 947.47728095 -326.03719293 944.81178921 -325.37182617 942.12939453 C-325.18877709 941.37195544 -325.00572802 940.61451635 -324.817132 939.83412457 C-324.21016058 937.32821247 -323.59531895 934.82430203 -322.98046875 932.3203125 C-322.54333844 930.52215133 -322.10672636 928.72386411 -321.67059326 926.92546082 C-320.73522475 923.07286694 -319.79644219 919.22112753 -318.85494995 915.37002563 C-317.3533678 909.22748649 -315.85971949 903.08303523 -314.36743164 896.93823242 C-312.56634715 889.52366956 -310.76377923 882.10947124 -308.95904446 874.69579601 C-304.52438162 856.4770456 -300.12323008 838.25027373 -295.73232269 820.02093506 C-295.12276039 817.49070361 -294.51287384 814.96055052 -293.90289307 812.43041992 C-289.15282372 792.72639627 -284.42490137 773.0172067 -279.7265625 753.30078125 C-279.49920284 752.34667547 -279.27184319 751.39256969 -279.03759384 750.40955162 C-277.21574989 742.76364256 -275.39449415 735.11759337 -273.57332611 727.47152328 C-267.45792499 701.79816533 -261.27664413 676.1437423 -254.95903015 650.51928711 C-254.5867907 649.00927124 -254.5867907 649.00927124 -254.20703125 647.46875 C-253.96092606 646.47045166 -253.71482086 645.47215332 -253.46125793 644.44360352 C-241.09849343 594.23483338 -229.19867329 543.90925347 -217.18388462 493.61621761 C-215.59296427 486.95687179 -214.00120067 480.29772786 -212.40890408 473.63871098 C-211.27172834 468.88266752 -210.13576778 464.12633599 -209.00072765 459.36978245 C-208.30103594 456.43881691 -207.60024437 453.50811518 -206.89914513 450.57748604 C-206.57370146 449.21610188 -206.24872191 447.85460668 -205.92423439 446.49299431 C-205.48131479 444.63468528 -205.03660395 442.77680346 -204.59179688 440.91894531 C-204.34328979 439.87845032 -204.09478271 438.83795532 -203.83874512 437.76593018 C-203.1875 435.1875 -203.1875 435.1875 -202.1875 432.1875 C-176.4475 432.1875 -150.7075 432.1875 -124.1875 432.1875 C-125.31249636 441.18747085 -125.31249636 441.18747085 -126.3144989 445.31491089 C-126.53965179 446.25178741 -126.76480469 447.18866394 -126.9967804 448.15393066 C-127.24236191 449.15613647 -127.48794342 450.15834229 -127.7409668 451.19091797 C-128.00147827 452.26934967 -128.26198975 453.34778137 -128.53039551 454.45889282 C-129.39499835 458.03351602 -130.26585901 461.60658394 -131.13671875 465.1796875 C-131.75233081 467.71964153 -132.36754183 470.25969279 -132.9823761 472.79983521 C-134.44607073 478.84412725 -135.91421965 484.88732799 -137.38402826 490.93013585 C-138.99995046 497.57440051 -140.6115132 504.21971912 -142.22239411 510.86520755 C-143.01588836 514.13864905 -143.80954878 517.41205025 -144.60325623 520.68544006 C-144.76052797 521.33406008 -144.91779971 521.98268009 -145.07983726 522.65095526 C-146.19631972 527.25511076 -147.31371757 531.85904353 -148.43153381 536.46287537 C-152.88712162 554.81445017 -157.32814719 573.16949391 -161.7578125 591.52734375 C-162.04034567 592.69817883 -162.32287884 593.8690139 -162.61397362 595.07532883 C-167.62459152 615.84151377 -172.62824997 636.60937999 -177.625 657.37890625 C-177.90214844 658.53080948 -178.17929687 659.68271271 -178.46484375 660.86952209 C-181.3036746 672.66914557 -184.14120714 684.46908126 -186.97879028 696.26900482 C-191.13762313 713.56323696 -195.29717461 730.8572962 -199.45715332 748.15125275 C-200.21331526 751.29482097 -200.96945181 754.4383953 -201.72558594 757.58197021 C-205.60774145 773.72154995 -209.49092941 789.86088104 -213.375 806 C-213.79373823 807.74003799 -213.79373823 807.74003799 -214.22093582 809.51522827 C-225.53739843 856.53916057 -225.53739843 856.53916057 -231.12109375 879.55078125 C-231.30638075 880.31447084 -231.49166775 881.07816044 -231.6825695 881.86499214 C-233.74144042 890.3499874 -235.80349949 898.83419654 -237.87150574 907.31697083 C-242.06328472 924.58934373 -246.11596762 941.88348737 -250.1875 959.1875 C-201.3475 958.8575 -152.5075 958.5275 -102.1875 958.1875 C-97.2375 937.3975 -92.2875 916.6075 -87.1875 895.1875 C-83.67789978 880.64100686 -80.16451263 866.09565644 -76.63341522 851.5544014 C-74.65700034 843.41233694 -72.68470296 835.26927307 -70.71178818 827.12635994 C-70.21289375 825.06725292 -69.71396464 823.0081543 -69.21500015 820.94906425 C-64.31322584 800.72027565 -59.42985224 780.48709755 -54.5625 760.25 C-54.27780287 759.06653111 -54.27780287 759.06653111 -53.98735428 757.85915375 C-49.24683391 738.15223896 -44.52833503 718.44015544 -39.83203125 698.72265625 C-39.60665617 697.77648878 -39.38128109 696.83032131 -39.14907646 695.8554821 C-38.46598419 692.98772477 -37.78291577 690.11996175 -37.09985352 687.25219727 C-36.41780375 684.38869578 -35.73574754 681.52519583 -35.05366898 678.6617012 C-34.60209652 676.765901 -34.15054564 674.87009566 -33.69901657 672.97428513 C-27.53748472 647.10624613 -21.30234597 621.2591925 -14.92919922 595.44238281 C-10.14529159 576.06144181 -5.47729633 556.65407065 -0.8352356 537.23873901 C1.42384559 527.79676954 3.69659842 518.35812013 5.97151756 508.91995621 C6.61083382 506.26738474 7.24994836 503.61476476 7.88899231 500.96212769 C8.20738713 499.64050597 8.20738713 499.64050597 8.53221416 498.29218483 C8.96265446 496.50546182 9.39309027 494.71873773 9.82352161 492.93201256 C10.88225959 488.53757756 11.94148676 484.14326161 13.00180054 479.74920654 C15.29521983 470.24378956 17.58078746 460.73657445 19.84857178 451.2250061 C20.4559699 448.67776934 21.06705151 446.13152728 21.6807251 443.58578491 C22.41198559 440.54750515 23.13198289 437.50682599 23.84765625 434.46484375 C24.04729477 433.64534241 24.24693329 432.82584106 24.45262146 431.98150635 C28.47464734 414.61628566 25.86912458 398.499942 16.8125 383.1875 C8.04172566 370.31280226 -3.33767368 363.14574318 -18.47933006 359.80257225 C-25.11147246 358.70250218 -31.7418068 358.74732094 -38.44262695 358.75512695 C-40.03073885 358.7460884 -41.61884381 358.73575613 -43.2069397 358.72424316 C-47.47671381 358.69689246 -51.74635479 358.68741881 -56.01620507 358.68138909 C-60.49386285 358.67194774 -64.97142338 358.64574013 -69.44902039 358.62138367 C-77.90944255 358.57787241 -86.36984567 358.54923135 -94.83034533 358.52606028 C-104.47018129 358.49892575 -114.10991868 358.45501964 -123.74968398 358.40977156 C-143.56223613 358.31714573 -163.3748178 358.24536447 -183.1875 358.1875 C-184.47436429 355.61377142 -184.01031159 354.74986949 -183.30834961 351.98974609 C-183.08355423 351.09101273 -182.85875885 350.19227936 -182.62715149 349.26631165 C-182.36733994 348.25803818 -182.10752838 347.24976471 -181.83984375 346.2109375 C-181.56540939 345.12173508 -181.29097504 344.03253265 -181.00822449 342.9103241 C-180.2225557 339.79654965 -179.43063691 336.6844312 -178.6367569 333.57274246 C-177.7617923 330.13577661 -176.89550961 326.69662563 -176.02880859 323.25756836 C-174.83693515 318.52983645 -173.64449028 313.80225272 -172.44927979 309.07536316 C-166.52019578 285.62185111 -160.66161015 262.15063113 -154.79525471 238.68136811 C-153.63696775 234.04759691 -152.47822728 229.41393928 -151.3192749 224.78033447 C-143.40363992 193.13203967 -135.51599929 161.47729372 -127.73254395 129.79620361 C-117.68304834 88.89381324 -107.42435399 48.04331892 -97.1875 7.1875 C-90.86066794 5.83061467 -84.60322597 4.7791231 -78.1640625 4.15234375 C-77.33780365 4.06876114 -76.5115448 3.98517853 -75.6602478 3.89906311 C-73.92103906 3.72446697 -72.18158186 3.55232948 -70.44189453 3.38256836 C-67.85239654 3.12890816 -65.26411469 2.86485804 -62.67578125 2.59960938 C-41.77970746 0.49750055 -20.9954341 -0.0190518 0 0 Z " fill="#030607" transform="translate(959.1875,302.8125)"/>
<path d="M0 0 C25.74 0 51.48 0 78 0 C76.87500769 10.12493075 76.87500769 10.12493075 75.90664673 14.10635376 C75.68876275 15.01407689 75.47087877 15.92180002 75.24639225 16.85702991 C75.00862285 17.82282821 74.77085344 18.7886265 74.52587891 19.78369141 C74.14657683 21.35338574 74.14657683 21.35338574 73.75961208 22.95479107 C72.92050325 26.42167615 72.07353288 29.8865904 71.2265625 33.3515625 C70.62908962 35.81361388 70.03213104 38.27579013 69.43565369 40.73808289 C68.16552627 45.97685153 66.89214857 51.2148122 65.61575317 56.45205688 C63.61426593 64.66479613 61.62082565 72.87947732 59.62866211 81.09448242 C58.96134098 83.84588371 58.29395734 86.59726984 57.62654114 89.34864807 C57.379252 90.36810183 57.379252 90.36810183 57.12696713 91.40815061 C55.96154441 96.21213535 54.7950416 101.01585701 53.62797546 105.81944275 C48.43720152 127.18493308 43.27183504 148.55643214 38.1340332 169.9347229 C37.56136572 172.31721901 36.98836988 174.69963594 36.4152832 177.08203125 C31.15116487 198.96752254 25.94253244 220.86565221 20.76281738 242.77127075 C16.60652409 260.33990523 12.35480705 277.88286747 8.03302002 295.41146851 C2.77729973 316.73483347 -2.37063595 338.08345813 -7.5 359.4375 C-7.7030777 360.28287449 -7.9061554 361.12824898 -8.11538696 361.99924088 C-9.92923036 369.55018443 -11.74253552 377.10125715 -13.55508423 384.6525116 C-17.25887313 400.08253272 -20.97211459 415.51026725 -24.6875 430.9375 C-26.440625 438.218125 -28.19375 445.49875 -30 453 C-55.74 453 -81.48 453 -108 453 C-106.87517973 442.87661754 -106.87517973 442.87661754 -105.83935547 438.74560547 C-105.60694656 437.80587891 -105.37453766 436.86615234 -105.13508606 435.89794922 C-104.88167953 434.89779785 -104.62827301 433.89764648 -104.3671875 432.8671875 C-104.09891647 431.78727539 -103.83064545 430.70736328 -103.554245 429.59472656 C-102.97197292 427.25215661 -102.38724312 424.91019647 -101.80032349 422.56878662 C-100.36060247 416.82158327 -98.93772553 411.07021607 -97.51560402 405.31863785 C-97.18325524 403.97460627 -96.85072248 402.63062018 -96.51801109 401.28667831 C-92.93785716 386.82221147 -89.46758041 372.3324146 -86.02739334 357.83399963 C-85.56004317 355.86464725 -85.09231901 353.89538405 -84.6244812 351.92614746 C-82.4132708 342.61815428 -80.20609788 333.30920603 -78 324 C-75.48192931 313.37434322 -72.96211394 302.74910426 -70.4375 292.125 C-70.2820232 291.47057671 -70.1265464 290.81615341 -69.96635818 290.14189911 C-65.11776431 269.73673391 -60.1635535 249.35897652 -55.13497925 228.99737549 C-50.32801363 209.52583491 -45.65301501 190.02488034 -41.02829361 170.50949478 C-36.3365545 150.71335985 -31.5604545 130.93999934 -26.6875 111.1875 C-21.63572648 90.70712527 -16.67140062 70.2088703 -11.81773376 49.68067932 C-9.34960818 39.24241148 -6.86086872 28.80905329 -4.375 18.375 C-2.93125 12.31125 -1.4875 6.2475 0 0 Z " fill="#030607" transform="translate(1236,735)"/>
</svg>
